Coordinates
version=1
nRows=7
nColumns=40
inDegrees=yes

Units are S.I. units (second, meters, Newtons, ...)
If the header above contains a line with 'inDegrees', this indicates whether rotational values are in degrees (yes) or radians (no).

endheader
time	pelvis_tilt	pelvis_list	pelvis_rotation	pelvis_tx	pelvis_ty	pelvis_tz	hip_flexion_r	hip_adduction_r	hip_rotation_r	knee_angle_r	knee_angle_r_beta	ankle_angle_r	subtalar_angle_r	mtp_angle_r	hip_flexion_l	hip_adduction_l	hip_rotation_l	knee_angle_l	knee_angle_l_beta	ankle_angle_l	subtalar_angle_l	mtp_angle_l	lumbar_extension	lumbar_bending	lumbar_rotation	arm_flex_r	arm_add_r	arm_rot_r	elbow_flex_r	pro_sup_r	wrist_flex_r	wrist_dev_r	arm_flex_l	arm_add_l	arm_rot_l	elbow_flex_l	pro_sup_l	wrist_flex_l	wrist_dev_l
      4.77500000	    -29.10401983	      2.27618587	      2.38936974	     -0.32450388	      0.77020445	     -1.04870058	     31.07465729	     -7.74911422	     -7.45591642	     98.46112879	      1.71847088	    -20.44036874	      0.00000000	      0.00000000	     75.73291373	      4.44578750	     -8.26138393	     85.81332396	      1.49772505	     28.37128983	      0.00000000	      0.00000000	     -0.07688574	     -6.45635873	     -0.41416722	     89.91309261	    -17.02321123	     17.57362672	     51.27696338	     85.99089007	      0.00000000	      0.00000000	     89.94197225	    -18.83494886	     22.55158862	     51.94767506	     85.60764532	      0.00000000	      0.00000000
      4.78000000	    -29.02643364	      2.20302217	      2.37555518	     -0.32426024	      0.77167656	     -1.04858342	     31.08817573	     -7.67040897	     -7.49127073	     98.42721192	      1.71787892	    -20.41616235	      0.00000000	      0.00000000	     75.50873832	      4.39941593	     -8.18780463	     85.57815595	      1.49362059	     28.29336488	      0.00000000	      0.00000000	     -0.08893174	     -6.37126061	     -0.40301241	     89.91256931	    -17.02996884	     17.69047376	     51.23333958	     85.99126815	      0.00000000	      0.00000000	     89.94192180	    -18.87178589	     22.64137772	     51.89939963	     85.60879826	      0.00000000	      0.00000000
      4.78500000	    -28.95660082	      2.16758606	      2.38099272	     -0.32409396	      0.77315412	     -1.04850131	     31.13062600	     -7.65718061	     -7.52380460	     98.41769224	      1.71771277	    -20.39232967	      0.00000000	      0.00000000	     75.29563076	      4.38928331	     -8.14061167	     85.34006041	      1.48946504	     28.21632041	      0.00000000	      0.00000000	     -0.10007105	     -6.33559716	     -0.37003679	     89.91253326	    -17.02426603	     17.78259058	     51.17588270	     86.00021219	      0.00000000	      0.00000000	     89.94180607	    -18.85685931	     22.70150968	     51.90945432	     85.60951475	      0.00000000	      0.00000000
      4.79000000	    -28.87043184	      2.11259281	      2.35883882	     -0.32376182	      0.77470105	     -1.04843343	     31.12250995	     -7.60358983	     -7.52849513	     98.35628470	      1.71664101	    -20.38185609	      0.00000000	      0.00000000	     75.03726214	      4.35974767	     -8.06873591	     85.07524409	      1.48484312	     28.12300794	      0.00000000	      0.00000000	     -0.11772314	     -6.26038587	     -0.37665519	     89.91129829	    -17.04292519	     17.87625133	     51.14981544	     86.00004022	      0.00000000	      0.00000000	     89.94154792	    -18.92109366	     22.77876806	     51.87143538	     85.60983695	      0.00000000	      0.00000000
      4.79500000	    -28.77525547	      2.07190634	      2.33139759	     -0.32355151	      0.77615780	     -1.04831806	     31.13505233	     -7.56437071	     -7.55730957	     98.34796613	      1.71649582	    -20.35936889	      0.00000000	      0.00000000	     74.80030515	      4.32359088	     -8.01806474	     84.84970495	      1.48090672	     28.03809875	      0.00000000	      0.00000000	     -0.13144114	     -6.20914602	     -0.35385955	     89.91096282	    -17.03119141	     17.97768225	     51.08147988	     85.99934143	      0.00000000	      0.00000000	     89.94148567	    -18.95229095	     22.85929232	     51.85464884	     85.61152044	      0.00000000	      0.00000000
      4.80000000	    -28.71315768	      2.02902938	      2.31319128	     -0.32328206	      0.77783378	     -1.04827308	     31.17440918	     -7.51645436	     -7.54685230	     98.30227726	      1.71569840	    -20.33584261	      0.00000000	      0.00000000	     74.55881842	      4.30359789	     -7.96938199	     84.55115713	      1.47569608	     27.94781260	      0.00000000	      0.00000000	     -0.12983465	     -6.16365381	     -0.31011482	     89.91065184	    -17.03312636	     18.10160570	     51.01263964	     86.01161090	      0.00000000	      0.00000000	     89.94116232	    -18.94782781	     22.94645199	     51.85101671	     85.61392824	      0.00000000	      0.00000000
      4.80500000	    -28.59289571	      1.98179976	      2.28548400	     -0.32298350	      0.77937513	     -1.04817203	     31.15069972	     -7.46505569	     -7.53879085	     98.28626561	      1.71541894	    -20.32085416	      0.00000000	      0.00000000	     74.28883385	      4.26522863	     -7.90834541	     84.29833532	      1.47128351	     27.85242862	      0.00000000	      0.00000000	     -0.16395175	     -6.09620700	     -0.29332675	     89.90973897	    -17.04720490	     18.20112791	     50.96103681	     86.00883148	      0.00000000	      0.00000000	     89.94102721	    -18.99826636	     23.03320083	     51.79638014	     85.61425261	      0.00000000	      0.00000000
